<?xml version="1.0" encoding="utf-8"?>

<!DOCTYPE svg PUBLIC "-//W3C//DTD SVG 1.1//EN" "http://www.w3.org/Graphics/SVG/1.1/DTD/svg11.dtd">
<svg version="1.1" id="Layer_1" xmlns="http://www.w3.org/2000/svg" xmlns:xlink="http://www.w3.org/1999/xlink" x="0px" y="0px"
	 viewBox="0 0 2632 1519.9349" enable-background="new 0 0 2632 1519.9349" xml:space="preserve">
<g>
	<path d="M1659.9733,1498.853c-90.0702,0-180.1412-0.1941-270.2087,0.292c-9.2872,0.05-13.078-3.483-16.3492-11.0311
		c-26.4343-60.9991-27.7203-124.0194-15.4492-188.1362c6.774-35.3944,13.6703-70.755,21.1563-106.0226
		c13.8854-65.4176,37.5992-126.3507,73.7488-182.846c17.9871-28.1106,32.6586-58.3593,48.521-87.8072
		c11.491-21.3326,24.8629-41.3854,39.5658-60.5897c2.4636-3.218,5.1132-6.1042,6.7162-10.0761
		c12.9496-32.0863,33.6906-59.3031,54.5541-86.4287c2.2523-2.9283,4.4686-5.9318,6.2948-9.1324
		c8.5668-15.0154,19.6201-27.9471,32.6858-39.1671c3.7765-3.243,6.5709-6.7656,8.0074-11.6917
		c10.7235-36.7714,25.5427-72.1086,38.2013-108.2055c4.568-13.0261,8.1907-26.1786,10.1538-39.8578
		c5.9874-41.7202,18.7295-81.7348,30.499-122.0458c9.7772-33.4873,17.2344-67.6468,26.7211-101.2256
		c8.0663-28.5508,16.0846-57.2063,31.2593-83.2067c13.9348-23.8757,46.4882-33.8859,70.9694-26.628
		c11.3118,3.3535,16.3876,10.8532,19.2196,20.9261c4.3837,15.5921,5.6465,31.4676,2.6698,47.4886
		c-5.3832,28.9714-8.538,58.1238-7.3427,87.6314c0.0907,2.2361-1.6624,6.2155,2.03,6.3605c3.0786,0.121,2.9695-3.9771,2.9979-6.2662
		c0.3566-28.6955,8.0004-56.6121,9.0181-85.2092c0.3871-10.8737,3.339-21.2802,4.8744-31.9392
		c5.9305-41.1691,11.2238-82.4577,22.6071-122.6387c2.8495-10.0583,5.6343-20.1935,11.7262-28.7129
		c19.7137-27.568,38.8027-33.6465,71.4689-29.173c7.447,1.0198,15.5155,1.647,22.0732,6.761
		c10.7621,8.3927,15.6912,19.2571,15.7068,32.8544c0.0323,27.8988-2.5543,55.6018-5.3516,83.3125
		c-1.4208,14.0753-1.3495,28.2365-0.4507,42.3429c2.2665,35.5689-3.5343,70.3867-10.0148,105.0603
		c-5.2567,28.1258-3.9261,56.1584-1.2649,84.2943c1.0154,10.7346,2.0934,21.4793,4.672,31.9817
		c0.4148,1.6896,1.6049,4.4498,2.5717,4.5089c3.0216,0.185,2.6693-2.8382,3.123-4.8729
		c5.0323-22.5662,6.0712-45.5958,8.3577-68.5097c3.4681-34.7554,3.8539-69.6859,7.0332-104.4246
		c0.8715-9.5229,2.8187-19.1027,4.7634-28.5005c2.3715-11.4605,3.4718-22.7553,1.6771-34.2429
		c-1.7976-11.5091-1.0327-22.9089-0.1853-34.445c1.6819-22.894,1.7046-45.8038,6.2859-68.5814
		c2.8779-14.3095-0.1062-29.6364,4.9922-43.9565c6.812-19.1321,15.093-37.9851,31.4673-50.4133
		c16.9526-12.8668,36.9229-18.334,58.8257-14.8637c20.2795,3.213,30.4985,16.5327,36.5593,34.3773
		c3.9429,11.6086,7.3689,23.3926,11.0313,35.0965c2.3469,7.5004,3.2893,15.1512,3.6968,23.0313
		c1.8425,35.6317,3.533,71.2777,7.8237,106.741c1.938,16.0169,0.6445,32.0183-2.9038,47.6958
		c-6.7092,29.6425-7.5432,59.5034-6.0322,89.7605c1.4685,29.4133,7.1829,58.3268,8.9512,87.5853
		c0.9302,15.3913,3.8923,30.9821,0.8352,46.5818c-0.7009,3.577-0.1582,7.4254,0.0444,11.1362
		c0.0681,1.2441-0.425,3.2003,1.7354,3.4277c1.6682,0.1756,3.0225-0.8984,3.4688-2.2585c0.7983-2.434,1.4343-5.0099,1.5757-7.5576
		c2.1436-38.6852,10.7905-76.4291,16.2107-114.6349c3.6377-25.6408,9.1013-51.1191,7.592-77.4937
		c-2.02-35.3003,0.0862-70.6739,2.9346-105.8695c1.6436-20.3069,7.3938-39.9819,15.0513-59.0902
		c8.0632-20.1205,24.5459-29.1153,43.5476-34.7783c7.376-2.1981,15.4644-3.0946,23.1726-2.8493
		c13.9275,0.4432,26.5212,3.0846,35.1589,16.9753c9.6858,15.5761,17.5154,31.1931,22.7576,49.0718
		c6.5349,22.2881,9.5569,45.0549,13.9458,67.593c5.7112,29.3262,5.418,59.2909,1.4937,88.7846
		c-6.197,46.5682-3.7861,92.6906,2.9033,138.8914c1.7556,12.1261,2.1023,24.4554,3.1157,36.6898
		c0.9011,10.8773,1.106,10.8354,10.8293,6.9966c18.2522-7.2059,32.147-21.1439,48.6375-31.0845
		c22.2444-13.4095,45.0137-24.7754,71.9529-23.3594c23.2646,1.2228,41.9702,12.5212,53.5818,31.5118
		c8.2107,13.4282,7.261,30.1645-0.4451,45.0858c-10.4116,20.1594-21.0884,40.2715-34.79,58.3702
		c-24.2419,32.0209-34.3406,69.4518-42.8552,107.5762c-1.8579,8.3181-3.301,16.8745-3.5918,25.3672
		c-0.6663,19.452-7.3247,37.0745-14.9824,54.51c-2.6018,5.9238-6.4104,10.9615-11.5815,14.774
		c-29.0247,21.3981-54.1738,47.2879-81.6875,70.449c-18.4465,15.5281-37.4307,30.433-55.4624,46.4232
		c-23.7053,21.0214-44.8315,44.5947-62.9871,70.5339c-13.5554,19.3665-29.6873,36.2432-46.9124,52.0578
		c-26.9089,24.7059-50.677,52.207-74.6458,79.6423c-15.3564,17.5776-30.325,35.6838-48.4666,50.6658
		c-31.0842,25.6705-56.1716,57.0408-81.1472,88.1877c-27.0116,33.6865-49.2286,70.887-66.9971,110.277
		c-13.0123,28.8468-22.3586,58.9684-21.4575,91.4982c0.3889,14.0366-2.54,28.1393-0.2538,42.2469
		c0.8129,5.0157-1.4874,6.7483-6.2148,6.4147c-2.592-0.1827-5.2084-0.0197-7.8136-0.0197
		C1838.6246,1498.8531,1749.299,1498.853,1659.9733,1498.853z M1868.7736,448.5893c-0.0621-0.0096-0.1243-0.0193-0.1864-0.0289
		c0.4187-2.5624,0.9449-5.1133,1.2184-7.6911c0.1843-1.7392,0.7461-3.9917-1.8082-4.4878c-1.744-0.3387-2.3983,1.2879-2.9485,2.6642
		c-8.5615,21.417-16.5455,43.0266-18.4009,66.2687c-1.0406,13.0374-0.1045,26.0177,3.2129,38.7337
		c0.4271,1.6374,0.2808,4.0388,2.5465,4.3961c2.4014,0.3785,2.7878-2.0361,3.6359-3.5505
		c3.4563-6.1723,5.8506-12.4031,6.4633-19.8286c0.8246-9.9938-0.1328-19.9839,1.1536-29.9496
		C1865.6571,479.6444,1867.0973,464.1016,1868.7736,448.5893z"/>
	<path d="M970.4203,1498.8529c-89.7034,0-179.407,0.0433-269.1103-0.0488c-12.8303-0.0132-12.3809,2.6587-11.7683-12.8213
		c0.9561-24.1655,1.1597-48.5853-3.7981-72.0906c-5.8939-27.9424-16.0662-54.8402-30.3499-79.9148
		c-19.3347-33.9414-39.2133-67.5393-64.301-97.6552c-19.2513-23.1095-39.8932-45.0374-59.9556-67.418
		c-8.0472-8.9771-20.2304-14.7965-28.5607-24.2816c-19.8611-22.6141-41.1565-43.9176-59.7396-67.7257
		c-13.2697-17.0006-30.2519-30.6852-45.7028-45.7163c-17.8631-17.3778-34.9735-35.2864-49.7329-55.528
		c-23.9499-32.8459-51.8793-61.7623-83.8801-87.2605c-32.7635-26.106-63.4071-54.8745-94.9341-82.5284
		c-4.7341-4.1526-9.0263-8.8357-14.6134-11.9231c-8.1736-4.5167-13.5928-11.4773-17.2854-19.8229
		c-7.5593-17.085-13.0077-34.6443-14.3362-53.5367c-1.7562-24.9754-9.7255-48.6257-16.0829-72.7153
		C97.9282,616.2606,76.6,592.558,61.102,565.3326c-6.6226-11.6339-13.3991-23.1628-19.5814-35.0527
		c-7.418-14.2666-6.6193-29.0038-1.9671-43.3604c2.7463-8.4752,10.535-14.2123,17.589-19.5652
		c24.1782-18.3477,50.6535-17.4859,77.3047-7.2118c19.8039,7.6344,37.6765,19.142,54.4778,32.1432
		c8.8791,6.8708,18.7405,11.9947,28.6849,17.0542c5.6594,2.8794,7.2806,0.3713,7.7449-4.8494
		c3.9176-44.055,10.6617-87.8776,10.7696-132.2456c0.0309-12.6987-2.1073-25.1792-3.4732-37.7433
		c-3.9898-36.6977-4.4965-73.143,2.761-109.7594c4.1855-21.1171,8.3548-42.1696,13.6384-63.0457
		c4.9803-19.6781,15.6099-36.1654,28.5168-51.0844c6.3047-7.2875,16.8262-7.6054,26.011-7.9575
		c18.3426-0.7032,35.6288,4.3795,50.7007,14.5302c13.2312,8.9109,18.4294,23.67,23.3944,38.2754
		c9.476,27.8757,11.0128,56.8904,11.9546,85.8245c0.8578,26.353,1.8978,52.7429-0.1337,79.1849
		c-0.8099,10.5415,1.752,21.4314,3.4356,32.0587c5.3453,33.7421,11.1934,67.4051,16.4295,101.1635
		c1.8177,11.7195,2.426,23.627,3.5655,35.4507c0.3924,4.0716,0.5167,8.1815,1.153,12.2125
		c0.3964,2.5111,1.1243,5.8859,4.2029,5.8419c4.1493-0.0593,2.3126-3.9314,2.4397-6.0687
		c0.6992-11.7578-0.7424-23.4431-0.2176-35.3439c1.0845-24.5945,5.0419-48.747,7.2537-73.1319
		c3.8698-42.6645,5.863-85.3342-4.1293-127.6283c-5.8615-24.8098-0.2786-49.5827,0.7831-74.3986
		c1.16-27.1164,5.5026-53.9832,5.4481-81.1851c-0.0342-17.081,8.3961-32.2348,12.443-48.4064
		c1.6107-6.4365,3.9084-12.5903,7.5824-18.4305c12.4247-19.7504,30.7482-23.7762,52.081-21.0508
		c38.6905,4.943,56.7178,31.7781,68.694,64.8874c2.7726,7.665,4.457,15.6868,4.0532,23.965
		c-0.9147,18.7491,5.6732,36.8075,5.7054,55.2939c0.0438,25.1597,5.3872,50.2586,0.6312,75.4864
		c-2.7683,14.6836,2.6374,28.861,5.1035,42.9187c3.5632,20.3105,3.9162,40.6583,5.2134,61.0029
		c2.6216,41.1159,4.589,82.2768,12.0198,122.9127c0.4457,2.4369,0.1663,6.4607,2.8176,6.5658
		c3.8946,0.1543,3.2621-4.3872,3.7181-6.8898c4.34-23.8203,6.15-47.8503,6.5462-72.0822
		c0.5208-31.8482-8.1499-62.3797-12.2297-93.558c-2.0864-15.9441-2.1647-31.8912-1.6574-47.856
		c0.8389-26.4007-0.2602-52.661-3.0151-78.9452c-1.8164-17.3295-2.7849-34.7869-2.3945-52.2837
		c0.475-21.2858,9.6775-32.9651,30.1588-37.9792c8.7419-2.1401,17.444-2.9259,26.4868-2.6906
		c28.3392,0.7374,46.5092,16.1185,57.5965,40.456c8.6562,19.0008,11.4493,39.8988,16.2091,60.1344
		c8.4435,35.8955,11.9754,72.6312,17.2416,108.977c4.6135,31.8405,8.4077,64.0098,10.9312,96.2108
		c0.2249,2.8696-1.0428,8.3204,2.8187,7.9767c3.1326-0.2789,1.2012-5.6407,1.3419-8.772
		c1.5613-34.7437-4.0758-68.8808-8.483-103.1405c-1.5752-12.2451-0.4857-24.5306,2.7504-36.4951
		c4.7208-17.4533,13.9526-24.4695,32.2366-24.8445c33.7568-0.6923,54.1118,13.276,68.4808,48.0333
		c10.9454,26.476,19.4504,53.8316,26.0196,81.7019c13.046,55.3483,30.693,109.4297,44.785,164.4866
		c4.9894,19.4932,6.1431,39.7472,11.4395,59.0805c9.3358,34.0786,23.0757,66.6882,35.0522,99.8844
		c0.2525,0.6998,0.613,1.3681,0.7997,2.0833c5.593,21.4169,12.8153,41.8579,32.6519,54.7844
		c25.7952,39.3646,58.7112,74.0855,77.0957,118.2854c4.3444,10.4445,12.7133,18.1255,19.0264,27.2211
		c19.5452,28.1596,36.1166,58.0467,51.6543,88.5096c16.0621,31.4902,35.7205,60.9118,52.2213,92.1452
		c19.0619,36.0811,31.5186,74.4437,41.0997,113.959c9.807,40.4463,17.3358,81.342,25.7465,122.0709
		c10.0138,48.4927,9.5811,96.8151,1.4203,145.2458c-2.8477,16.9017-10.8102,32.3679-16.608,48.4371
		c-2.8405,7.8726-7.2104,10.3451-15.5806,10.316C1151.3165,1498.7354,1060.8682,1498.853,970.4203,1498.8529z M767.9818,515.9036
		c0.4951,6.8263-0.3281,17.7922,6.1187,27.3498c1.2192,1.8076,1.7626,4.925,4.0335,4.7901c3.3095-0.1965,2.7346-3.8656,3.542-6.1706
		c0.4874-1.3913,0.6661-2.8951,0.939-4.3567c6.5112-34.8665-3.7856-66.8883-16.7031-98.4579
		c-0.5347-1.3068-1.0791-2.9561-3.0162-2.5843c-2.0417,0.392-1.5812,2.2557-1.5753,3.5466c0.0084,1.8377,0.5449,3.6658,0.7003,5.511
		C763.8893,467.7087,768.2461,489.6715,767.9818,515.9036z"/>
</g>
</svg>
